<?xml version="1.0" encoding="utf-8"?>
<!-- Generator: Adobe Illustrator 15.0.0, SVG Export Plug-In . SVG Version: 6.00 Build 0)  -->
<!DOCTYPE svg PUBLIC "-//W3C//DTD SVG 1.1//EN" "http://www.w3.org/Graphics/SVG/1.1/DTD/svg11.dtd">
<svg version="1.1" id="圖層_1" xmlns="http://www.w3.org/2000/svg" xmlns:xlink="http://www.w3.org/1999/xlink" x="0px" y="0px"
	 width="300px" height="100px" viewBox="0 0 300 100" enable-background="new 0 0 300 100" xml:space="preserve">
<g>
	<path fill="#006F72" d="M8.713,81.543h123.583c13.277,0,13.246-16.301,13.246-16.301V20.177H23.067
		c-16.293,0-14.354,14.288-14.354,14.288V81.543z"/>
	<g>
		<path fill="#888888" d="M153.479,81.543v-61.35h1.335l40.83,47.027V20.193h6.047v61.35h-1.376l-40.497-46.456v46.456H153.479z"/>
		<path fill="#888888" d="M253.865,66.487l4.922,2.585c-1.615,3.17-3.479,5.729-5.595,7.674c-2.115,1.946-4.494,3.428-7.138,4.441
			c-2.645,1.015-5.636,1.522-8.976,1.522c-7.402,0-13.19-2.426-17.365-7.277s-6.262-10.336-6.262-16.452
			c0-5.756,1.767-10.886,5.301-15.391c4.48-5.727,10.479-8.591,17.992-8.591c7.736,0,13.914,2.934,18.533,8.8
			c3.284,4.143,4.953,9.314,5.01,15.514h-40.83c0.11,5.271,1.795,9.592,5.053,12.962c3.257,3.37,7.279,5.056,12.067,5.056
			c2.311,0,4.559-0.401,6.744-1.205c2.184-0.803,4.042-1.869,5.573-3.198S252.084,69.45,253.865,66.487z M253.865,54.267
			c-0.779-3.113-1.913-5.602-3.404-7.465c-1.489-1.862-3.458-3.364-5.908-4.504c-2.449-1.14-5.025-1.71-7.726-1.71
			c-4.454,0-8.281,1.432-11.482,4.296c-2.339,2.085-4.106,5.213-5.303,9.383H253.865z"/>
		<path fill="#888888" d="M276.262,19.317h5.839v16.849h9.258v5.046h-9.258v40.33h-5.839v-40.33h-7.966v-5.046h7.966V19.317z"/>
	</g>
	<g>
		<path fill="#FFFFFF" d="M21.816,27.488h26.792v9.142H31.091v8.875h17.516v8.976H31.091v12.912h17.516v9.175H21.816V27.488z"/>
		<path fill="#FFFFFF" d="M83.592,45.338l-5.638,5.638c-2.292-2.269-4.371-3.403-6.239-3.403c-1.023,0-1.824,0.217-2.402,0.651
			c-0.579,0.433-0.868,0.973-0.868,1.618c0,0.489,0.184,0.94,0.551,1.351c0.367,0.412,1.273,0.973,2.719,1.686l3.336,1.668
			c3.514,1.734,5.927,3.503,7.24,5.305c1.312,1.801,1.968,3.915,1.968,6.34c0,3.226-1.185,5.916-3.553,8.074
			c-2.369,2.157-5.544,3.236-9.525,3.236c-5.294,0-9.521-2.068-12.679-6.206l5.605-6.105c1.068,1.246,2.319,2.252,3.754,3.02
			c1.435,0.768,2.708,1.151,3.82,1.151c1.202,0,2.169-0.289,2.903-0.868c0.733-0.578,1.101-1.246,1.101-2.002
			c0-1.401-1.323-2.77-3.97-4.104l-3.069-1.534c-5.873-2.959-8.808-6.662-8.808-11.111c0-2.87,1.106-5.322,3.319-7.357
			c2.213-2.035,5.043-3.053,8.491-3.053c2.357,0,4.577,0.518,6.657,1.552C80.383,41.918,82.146,43.403,83.592,45.338z"/>
		<path fill="#FFFFFF" d="M97.659,26.888h9.109v13.379h5.405v7.841h-5.405v28.46h-9.109v-28.46h-4.671v-7.841h4.671V26.888z"/>
		<path fill="#FFFFFF" d="M125.722,25.32c1.597,0,2.967,0.579,4.108,1.735c1.143,1.157,1.714,2.558,1.714,4.204
			c0,1.624-0.565,3.008-1.696,4.154c-1.133,1.146-2.485,1.718-4.06,1.718c-1.619,0-3-0.584-4.143-1.752
			c-1.142-1.168-1.713-2.585-1.713-4.254c0-1.601,0.565-2.969,1.696-4.104C122.761,25.887,124.124,25.32,125.722,25.32z
			 M121.167,40.267h9.109v36.301h-9.109V40.267z"/>
	</g>
</g>
</svg>
